<svg xmlns="http://www.w3.org/2000/svg" width="800.9" height="166.3" viewBox="0 0 800.9 166.3"><circle fill="#E6E7E8" cx="83.2" cy="83.2" r="83.1"/><path fill="#00AEEF" d="M118.5 125.6c1-8.9 1.1-18.8.3-29.3-.5-6.1-1.2-12.4-2.4-18.9-1.1-6.4-2.5-12.7-4.1-18.6-2.8-10.2-6.2-19.5-10.1-27.5l-19 51.9 35.3 42.4z"/><path fill="#0083B3" d="M28.7 92.6c7.2 5.3 15.7 10.3 25.3 14.9 5.5 2.6 11.4 5.1 17.5 7.4 6.1 2.3 12.2 4.1 18.1 5.7 10.2 2.7 20 4.4 28.9 5L83.2 83.2l-54.5 9.4z"/><path fill="#66CEF5" d="M102.2 31.3c-8.2 3.6-16.8 8.5-25.5 14.4-5.1 3.5-10.1 7.3-15.2 11.5-5 4.2-9.7 8.5-14 12.9-7.4 7.5-13.8 15.1-18.8 22.5l54.4-9.4 19.1-51.9z"/><g fill="#6D6E71"><path d="M334.6 107.2c-8.6 10.7-19.9 16.1-34 16.1-5.9 0-11.2-1-16.1-3-4.9-2-9-4.7-12.5-8.2-3.5-3.5-6.2-7.7-8.1-12.6-1.9-4.9-2.9-10.2-2.9-16.1 0-5.8.9-11.1 2.9-16.1 1.9-4.9 4.6-9.2 8.1-12.8 3.5-3.6 7.7-6.4 12.6-8.5 4.9-2 10.3-3 16.1-3 6.6 0 12.8 1.1 18.4 3.3 5.6 2.2 10.4 6.1 14.3 11.5L320 71.4c-2.1-2.9-4.7-5.2-7.7-7-3-1.8-6.4-2.6-10.2-2.6-3.2 0-6.1.5-8.6 1.6s-4.6 2.6-6.3 4.5c-1.7 1.9-3 4.1-3.9 6.7-.9 2.6-1.4 5.3-1.4 8.3 0 3 .5 5.9 1.4 8.5 1 2.6 2.3 4.8 4.1 6.7 1.7 1.9 3.9 3.4 6.3 4.5 2.5 1.1 5.2 1.6 8.3 1.6 4.4 0 8-.8 10.8-2.3 2.8-1.6 5.5-4 8.2-7.4l13.6 12.7zM413.9 107.2c-8.6 10.7-19.9 16.1-34 16.1-5.9 0-11.2-1-16.1-3-4.9-2-9-4.7-12.5-8.2-3.5-3.5-6.2-7.7-8.1-12.6-1.9-4.9-2.9-10.2-2.9-16.1 0-5.8.9-11.1 2.9-16.1 1.9-4.9 4.6-9.2 8.1-12.8 3.5-3.6 7.7-6.4 12.6-8.5 4.9-2 10.3-3 16.1-3 6.6 0 12.8 1.1 18.4 3.3 5.6 2.2 10.4 6.1 14.3 11.5l-13.4 13.5c-2.1-2.9-4.7-5.2-7.7-7-3-1.8-6.4-2.6-10.2-2.6-3.2 0-6.1.5-8.6 1.6s-4.6 2.6-6.3 4.5c-1.7 1.9-3 4.1-3.9 6.7-.9 2.6-1.4 5.3-1.4 8.3 0 3 .5 5.9 1.4 8.5 1 2.6 2.3 4.8 4.1 6.7 1.7 1.9 3.9 3.4 6.3 4.5 2.5 1.1 5.2 1.6 8.3 1.6 4.4 0 8-.8 10.8-2.3 2.8-1.6 5.5-4 8.2-7.4l13.6 12.8zM425 45.1h54.9v17.5h-34.6v11.8h28.5v16.5h-28.5v13h37v17.5H425V45.1zM496.7 45.1h18.4l29.3 42.5V45.1h20v76.2h-17.3l-30.4-43.8v43.8h-20V45.1zM598.9 62.8h-23.4V45.1h67.1v17.7h-23.2v58.5h-20.5V62.8zM654.9 45.1h31.6c4.1 0 7.8.5 11.1 1.6s6.1 2.6 8.5 4.7c2.4 2.1 4.2 4.7 5.5 7.8 1.3 3.1 1.9 6.7 1.9 10.9 0 5-1.1 9.4-3.3 13.1-2.2 3.7-5.1 6.7-8.8 8.9l16.3 29.3H696l-12.9-25.9h-8.5v25.9h-19.8V45.1zm29.6 34.4c2.7 0 4.8-.8 6.5-2.5 1.7-1.6 2.5-3.8 2.5-6.6 0-2.9-.8-5.2-2.4-6.9-1.6-1.7-3.8-2.5-6.7-2.5h-9.7v18.4h9.8zM200.8 121.3h-20.9l28-76.2h23.2l27 76.2h-21.8l-17.5-56.1-18 56.1zM743.6 121.3h-20.9l28-76.2h23.2l27 76.2h-21.8l-17.5-56.1-18 56.1z"/></g></svg>